# xmcd CD database file
#
# Track frame offsets:
#	155
#	25779
#	59605
#	81034
#	106509
#	112703
#	143470
#	163997
#	192023
#	226544
#	248593
#	253536
#
# Disc length: 3855 seconds
#
# Revision: 0
# Processed by: cddbd v1.5.2PL0 Copyright (c) Steve Scherf et al.
# Submitted via: CDex 1.51
#
DISCID=810f0d0c
DTITLE=Eym Trio - Khamsin
DYEAR=2016
DGENRE=Jazz
TTITLE0=Bengaluru
TTITLE1=Feat.Mohamed Abozekry_Khamsin
TTITLE2=Feat.Marian Badoi_Le Vent Des Carpates
TTITLE3=Little Zéphir
TTITLE4=Interlude India
TTITLE5=Le Lours de Kuala Lumpur (Part 1)
TTITLE6=Feat.Marian Badoi_Le Lours De Kuala Lumpur (Part 2)
TTITLE7=Möbius Strip
TTITLE8=Ginkgo Biloba
TTITLE9=Marie-Claire
TTITLE10=Interlude Romania
TTITLE11=Feat.Mohamed Abozekry_Mirages
EXTD=YEAR: 2016
EXTT0=
EXTT1=
EXTT2=
EXTT3=
EXTT4=
EXTT5=
EXTT6=
EXTT7=
EXTT8=
EXTT9=
EXTT10=
EXTT11=
PLAYORDER=
